<svg width="61" height="61" viewBox="0 0 61 61" fill="none" xmlns="http://www.w3.org/2000/svg">
<rect x="-0.000793457" width="60.8" height="60.8" rx="30.4" fill="#1664F9"/>
<g clip-path="url(#clip0_0_432)">
<path d="M36.6062 31.0584L25.5055 42.1284C25.1418 42.4909 24.5529 42.4903 24.1898 42.1265C23.827 41.7628 23.828 41.1736 24.1917 40.8109L34.6317 30.3998L24.1913 19.9887C23.8276 19.6259 23.8267 19.0371 24.1895 18.6733C24.3715 18.491 24.6099 18.3998 24.8484 18.3998C25.0862 18.3998 25.3237 18.4904 25.5054 18.6714L36.6062 29.7412C36.7813 29.9154 36.8796 30.1526 36.8796 30.3998C36.8796 30.6469 36.7811 30.8838 36.6062 31.0584Z" fill="white"/>
</g>
<defs>
<clipPath id="clip0_0_432">
<rect width="24" height="24" fill="white" transform="matrix(1 0 0 -1 18.3976 42.3999)"/>
</clipPath>
</defs>
</svg>
