<svg width="43" height="54" viewBox="0 0 43 54" fill="none" xmlns="http://www.w3.org/2000/svg">
<path d="M24.2444 52.1273H10.9683V32.1698C10.9683 31.7353 10.6161 31.3832 10.1817 31.3832C9.74729 31.3832 9.39509 31.7353 9.39509 32.1698V33.7414L5.93968 39.5547C5.36503 40.5215 5.56378 41.7585 6.41229 42.4958L9.39509 45.0893V49.0352L2.1217 42.7099C1.5398 42.2038 1.40366 41.3553 1.79824 40.6922L4.59853 35.9824C4.82057 35.609 4.69775 35.1263 4.32437 34.9043C3.95077 34.6823 3.4682 34.805 3.24616 35.1784L0.445967 39.888C-0.337726 41.2054 -0.0671248 42.8915 1.08933 43.8971L9.39498 51.12V52.3896C9.39498 53.1125 9.98307 53.7006 10.706 53.7006H24.2444C24.6789 53.7006 25.031 53.3485 25.031 52.914C25.031 52.4794 24.6789 52.1273 24.2444 52.1273ZM9.39509 43.0044L7.44435 41.3083C7.17039 41.0703 7.10631 40.6709 7.29206 40.3584L9.39509 36.8204V43.0044Z" fill="white"/>
<path d="M42.0666 32.1915L32.9958 26.9543C32.6211 26.7383 32.1847 26.6809 31.7673 26.7931C31.4131 26.8882 31.1093 27.0964 30.8933 27.3853C30.4384 27.278 29.9731 27.2225 29.5027 27.2225H26.2016C25.5525 26.2377 24.7705 25.9281 24.3004 25.5795V24.7025C25.8514 24.0642 27.048 23.0217 27.6759 21.6831C27.8934 21.2193 28.0397 20.6561 28.1374 20.0757H29.466C31.0031 20.0757 32.2538 18.8251 32.2538 17.2879C32.2538 16.2472 31.6801 15.3383 30.8327 14.8595L32.0466 8.52214C32.4542 6.39887 31.4798 4.21287 29.6222 3.08285C26.2641 1.03825 22.4297 0.00104884 18.2253 0C17.2582 0 16.3708 0.488654 15.8517 1.30685L13.3522 5.24231C12.1519 5.22259 11.0956 5.40446 10.1367 5.79715C9.20773 6.17871 8.67104 7.17291 8.86067 8.16123L10.145 14.8596C9.29761 15.3384 8.7239 16.2473 8.7239 17.288C8.7239 18.8252 9.97453 20.0758 11.5117 20.0758H12.8373C12.9407 20.6856 13.0915 21.2354 13.3016 21.6833C13.9298 23.0218 15.1261 24.0644 16.6772 24.7027V25.5796C16.2129 25.9239 15.4255 26.2372 14.7761 27.2226H11.432C9.29898 27.2226 7.29727 28.3616 6.20815 30.1946L5.11946 32.0249C4.89731 32.3982 5.02003 32.8809 5.39341 33.1031C5.51948 33.1781 5.65804 33.2137 5.7948 33.2137C6.0631 33.2137 6.32457 33.0764 6.47162 32.8291L7.56053 30.9986C8.36771 29.6399 9.85119 28.7959 11.432 28.7959H14.1617C14.0376 29.5563 14.1296 30.3588 14.4651 31.112L15.6145 33.6918C15.7671 34.0349 16.0629 34.2852 16.4263 34.379C16.7895 34.4725 17.1692 34.3966 17.4685 34.1704L20.0558 32.2135C20.3106 32.0207 20.6666 32.0209 20.9214 32.2133L23.509 34.1705C23.7242 34.3332 23.9812 34.4181 24.2437 34.4181C24.7157 34.4181 25.1604 34.1473 25.3627 33.6922L26.5122 31.112C26.8478 30.3588 26.9397 29.5563 26.8158 28.7959H29.5025C29.6844 28.7959 29.8655 28.8073 30.0448 28.8291L22.9436 41.1278C22.7273 41.5023 22.6698 41.9387 22.7819 42.3568C22.894 42.7748 23.1623 43.124 23.5366 43.3396L30.01 47.0772V52.1273H27.9144C27.4799 52.1273 27.1278 52.4794 27.1278 52.914C27.1278 53.3485 27.4799 53.7006 27.9144 53.7006H30.2722C30.9952 53.7006 31.5833 53.1125 31.5833 52.3895V47.9855L32.6076 48.5768C32.8614 48.7231 33.1388 48.7927 33.413 48.7927C33.9731 48.7927 34.5192 48.5022 34.8194 47.9834L35.6161 46.6034C36.0175 46.7854 36.4506 46.8775 36.8841 46.8775C37.6527 46.8775 38.4222 46.5906 39.0161 46.0144C40.2276 44.8386 40.2567 42.8963 39.081 41.6847L38.6892 41.281L42.6597 34.4036C43.1052 33.631 42.8394 32.6389 42.0666 32.1915ZM30.6803 17.288C30.6803 17.9578 30.1355 18.5026 29.4657 18.5026H28.2994C28.3388 17.7045 28.3246 16.9035 28.271 16.0735H29.4656C30.1355 16.0735 30.6803 16.6182 30.6803 17.288ZM12.6754 18.5026H11.5117C10.842 18.5026 10.2972 17.9578 10.2972 17.288C10.2972 16.6182 10.842 16.0735 11.5117 16.0735H12.7049C12.6526 16.8782 12.6374 17.7092 12.6754 18.5026ZM12.8558 14.5002H11.6781L10.4059 7.86493C10.3567 7.60849 10.495 7.3509 10.7339 7.25273C11.5919 6.90126 12.5716 6.76334 13.7283 6.83078C14.0123 6.84756 14.2852 6.70827 14.4382 6.46715L17.1801 2.14991C17.4091 1.7889 17.7999 1.57326 18.2252 1.57326C22.1368 1.5742 25.696 2.53421 28.8041 4.42684C30.1039 5.21745 30.7859 6.74414 30.5015 8.22595L29.2995 14.5002H28.1217C28.0708 14.1002 28.0109 13.7027 27.9418 13.3128C27.7604 12.2884 26.9477 11.488 25.9198 11.3209C22.0438 10.6905 18.2671 9.05914 16.9394 7.44162C16.6868 7.134 16.2442 7.06341 15.9084 7.27748C15.7455 7.38142 15.5884 7.497 15.4405 7.62213C13.8367 8.9853 13.1214 12.4219 12.8558 14.5002ZM14.7259 21.0151C14.0986 19.6776 14.1922 16.858 14.3399 15.3717C14.3402 15.3686 14.3405 15.3657 14.3409 15.3627C14.5235 13.5307 15.1114 10.3066 16.2655 9.01163C18.354 10.9502 22.4696 12.3534 25.6673 12.8735C26.0363 12.9335 26.3277 13.2203 26.3928 13.5871C26.7429 15.5639 26.8305 17.6495 26.6691 19.1975C26.6683 19.2045 26.6675 19.2114 26.6669 19.2184C26.5871 19.9705 26.4484 20.595 26.2516 21.0149C25.308 23.025 22.7013 23.8379 20.4887 23.8379C18.2531 23.8379 15.6629 23.0115 14.7259 21.0151ZM16.8722 32.6487L15.9023 30.4716C15.4276 29.406 15.7477 28.1672 16.6774 27.4664V27.6253C16.6774 28.4902 17.0545 29.3075 17.7113 29.8669L19.0445 31.0057L16.8722 32.6487ZM20.4888 30.1705L18.7322 28.6699C18.4262 28.4093 18.2505 28.0285 18.2505 27.6253V25.1834C18.9549 25.3322 19.705 25.4111 20.4886 25.4111C21.2722 25.4111 22.0226 25.3322 22.727 25.1833V27.6252C22.727 28.0284 22.5515 28.4094 22.2455 28.6705L20.4888 30.1705ZM25.0753 30.4716L24.1053 32.6487L21.9334 31.0059L23.2671 29.8672C23.9237 29.3067 24.3003 28.4895 24.3003 27.6253V27.4664C25.2184 28.1586 25.5559 29.3931 25.0753 30.4716ZM35.3253 30.116L38.1649 31.7554L37.3224 33.2147L34.4829 31.5752L35.3253 30.116ZM28.1851 35.6782L29.0098 34.8778C29.1851 34.7077 29.4158 34.6152 29.6601 34.6198C29.9042 34.6235 30.1322 34.722 30.3023 34.8973L31.8494 36.4917L29.7128 38.5652L28.1656 36.9706C27.9957 36.7954 27.904 36.5645 27.9077 36.3205C27.9114 36.0763 28.0099 35.8483 28.1851 35.6782ZM33.4575 47.196C33.4442 47.2192 33.4159 47.2266 33.3938 47.214L24.3229 41.9767C24.3184 41.9741 24.3066 41.9673 24.3017 41.9491C24.2969 41.9308 24.3036 41.9193 24.3062 41.9147L26.7411 37.6976C26.827 37.8281 26.9255 37.9515 27.0366 38.0661L34.3673 45.6203L33.4575 47.196ZM37.9207 44.8853C37.3314 45.4571 36.387 45.4428 35.8155 44.8537L30.8086 39.6941L32.9453 37.6205L37.9521 42.7801C38.5237 43.3693 38.5097 44.3137 37.9207 44.8853ZM41.2972 33.6174L37.5505 40.1072L31.4315 33.8016C30.9687 33.3248 30.3481 33.0566 29.6839 33.0467C29.5953 33.0455 29.5075 33.049 29.4206 33.0568L32.1476 28.3339C32.1502 28.3294 32.1572 28.3174 32.1751 28.3126C32.1936 28.3076 32.2056 28.3148 32.2097 28.3171L33.963 29.3293L33.0828 30.8537C32.6699 31.569 32.9159 32.4871 33.6312 32.9002L36.6009 34.6149C36.8318 34.7481 37.088 34.8161 37.3475 34.8161C37.8588 34.8161 38.3658 34.5541 38.6474 34.0664L39.5275 32.5421L41.2793 33.5535C41.3022 33.5669 41.31 33.5952 41.2972 33.6174Z" fill="white"/>
<path d="M18.4765 42.8226C19.0875 42.8226 19.5845 42.3255 19.5845 41.7146V38.6701C19.5845 38.0591 19.0875 37.562 18.4765 37.562H13.4869C12.876 37.562 12.3789 38.0591 12.3789 38.6701V41.7146C12.3789 42.3255 12.876 42.8226 13.4869 42.8226H18.4765ZM13.9522 39.1352H18.0114V41.2493H13.9522V39.1352Z" fill="white"/>
<path d="M18.2563 16.2314V16.0216C18.2563 15.5871 17.9041 15.235 17.4696 15.235C17.0352 15.235 16.683 15.5871 16.683 16.0216V16.2314C16.683 16.6659 17.0352 17.018 17.4696 17.018C17.9041 17.018 18.2563 16.6658 18.2563 16.2314Z" fill="white"/>
<path d="M23.5171 17.0179C23.9516 17.0179 24.3037 16.6658 24.3037 16.2313V16.0215C24.3037 15.587 23.9516 15.2349 23.5171 15.2349C23.0826 15.2349 22.7305 15.587 22.7305 16.0215V16.2313C22.7305 16.6657 23.0827 17.0179 23.5171 17.0179Z" fill="white"/>
<path d="M18.9405 20.7058C19.4476 20.9684 20.0555 21.0996 20.6633 21.0996C21.2711 21.0996 21.879 20.9683 22.3861 20.7057C22.772 20.5061 22.9228 20.0313 22.7231 19.6457C22.5234 19.2596 22.0484 19.1088 21.6631 19.3087C21.0933 19.6035 20.2338 19.6037 19.6638 19.3086C19.278 19.1091 18.8033 19.2599 18.6036 19.6457C18.4037 20.0314 18.5546 20.5061 18.9405 20.7058Z" fill="white"/>
</svg>
