<svg width="61" height="55" viewBox="0 0 61 55" fill="none" xmlns="http://www.w3.org/2000/svg">
<path d="M29.0212 23.0667H13.8502C11.6769 23.0667 9.90897 24.8346 9.90897 27.0078V37.4741C9.90897 39.6473 11.6769 41.4153 13.8502 41.4153H29.0212C31.1944 41.4153 32.9624 39.6473 32.9624 37.4741V27.0078C32.9624 24.8346 31.1944 23.0667 29.0212 23.0667ZM30.61 37.4741C30.61 38.3501 29.8972 39.0629 29.0212 39.0629H13.8502C12.9741 39.0629 12.2614 38.3501 12.2614 37.4741V27.0078C12.2614 26.1318 12.9741 25.419 13.8502 25.419H29.0212C29.8972 25.419 30.61 26.1318 30.61 27.0078V37.4741Z" fill="white"/>
<path d="M23.5834 31.2221L20.4597 29.4186C20.0958 29.2084 19.6474 29.2084 19.2835 29.4186C18.9196 29.6287 18.6954 30.0171 18.6954 30.4372V34.0441C18.6954 34.4643 18.9196 34.8526 19.2835 35.0627C19.4655 35.1679 19.6685 35.2203 19.8716 35.2203C20.0747 35.2203 20.2777 35.1679 20.4597 35.0627L23.5834 33.2593C23.9473 33.0492 24.1715 32.6608 24.1715 32.2407C24.1715 31.8205 23.9473 31.4322 23.5834 31.2221Z" fill="white"/>
<path d="M60.0485 8.73233L45.3603 1.08707C45.0198 0.90994 44.6146 0.90994 44.2742 1.08707L29.5859 8.73233C29.1968 8.93487 28.9528 9.33701 28.9528 9.77562C28.9528 10.2142 29.1968 10.6164 29.5859 10.8189L35.2415 13.7627V16.2447H11.6344C7.28905 16.2447 3.75388 19.7798 3.75388 24.1252V45.8848H1.63673C0.98724 45.8848 0.460541 46.4115 0.460541 47.0609C0.460541 51.3415 3.9429 54.8238 8.22342 54.8238H46.5673C50.8479 54.8238 54.3302 51.3415 54.3302 47.0609C54.3302 46.4115 53.8035 45.8848 53.154 45.8848H51.0369V24.1252C51.0369 23.9603 51.0298 23.7956 51.0196 23.6311L53.6765 22.5025C54.1108 22.3181 54.3929 21.8918 54.3929 21.4199V13.7627L58.3293 11.7137V18.9124C58.3293 19.5619 58.856 20.0886 59.5055 20.0886C60.155 20.0886 60.6817 19.5619 60.6817 18.9124V9.77562C60.6817 9.3369 60.4376 8.93475 60.0485 8.73233ZM48.6845 45.8848H32.6882C32.0388 45.8848 31.5121 46.4115 31.5121 47.0609C31.5121 47.7104 32.0388 48.2371 32.6882 48.2371H51.849C51.3104 50.6567 49.1467 52.4714 46.5673 52.4714H8.22342C5.64391 52.4714 3.4803 50.6567 2.94172 48.2371H22.1025C22.752 48.2371 23.2787 47.7104 23.2787 47.0609C23.2787 46.4115 22.752 45.8848 22.1025 45.8848H6.10627V24.1252C6.10627 21.077 8.58616 18.5971 11.6344 18.5971H35.2415V21.4199C35.2415 21.8918 35.5235 22.3181 35.9579 22.5025L44.3575 26.0702C44.5044 26.1326 44.6608 26.1639 44.8173 26.1639C44.9737 26.1639 45.1301 26.1326 45.277 26.0702L48.6845 24.6229V45.8848ZM52.0405 20.6416L44.8173 23.7099L37.5939 20.6416V14.9871L44.2742 18.4642C44.4444 18.5527 44.6308 18.5971 44.8173 18.5971C45.0037 18.5971 45.1901 18.5527 45.3603 18.4642L52.0405 14.9871V20.6416ZM44.8173 16.0948L32.6765 9.77562L44.8173 3.45628L56.9579 9.77562L44.8173 16.0948Z" fill="white"/>
<path d="M43.9809 8.94362C43.7622 9.1624 43.6363 9.46585 43.6363 9.77519C43.6363 10.0845 43.7621 10.388 43.9809 10.6066C44.1997 10.8254 44.5032 10.9514 44.8125 10.9514C45.1219 10.9514 45.4253 10.8255 45.644 10.6066C45.8627 10.388 45.9887 10.0845 45.9887 9.77519C45.9887 9.46585 45.8629 9.1624 45.644 8.94362C45.4253 8.72485 45.1229 8.599 44.8125 8.599C44.5032 8.59912 44.1997 8.72485 43.9809 8.94362Z" fill="white"/>
<path d="M44.1799 39.0626H37.75C37.1005 39.0626 36.5738 39.5893 36.5738 40.2388C36.5738 40.8883 37.1005 41.415 37.75 41.415H44.1799C44.8294 41.415 45.3561 40.8883 45.3561 40.2388C45.3561 39.5893 44.8294 39.0626 44.1799 39.0626Z" fill="white"/>
<path d="M44.1799 33.4171H37.75C37.1005 33.4171 36.5738 33.9438 36.5738 34.5933C36.5738 35.2428 37.1005 35.7695 37.75 35.7695H44.1799C44.8294 35.7695 45.3561 35.2428 45.3561 34.5933C45.3561 33.9438 44.8294 33.4171 44.1799 33.4171Z" fill="white"/>
<path d="M27.3877 45.8848C27.0783 45.8848 26.7749 46.0105 26.5561 46.2294C26.3373 46.4483 26.2115 46.7503 26.2115 47.061C26.2115 47.3703 26.3372 47.6738 26.5561 47.8924C26.7749 48.1112 27.0783 48.2372 27.3877 48.2372C27.697 48.2372 28.0005 48.1113 28.2191 47.8924C28.438 47.6738 28.5639 47.3703 28.5639 47.061C28.5639 46.7516 28.438 46.4482 28.2191 46.2294C28.0005 46.0105 27.697 45.8848 27.3877 45.8848Z" fill="white"/>
</svg>
