<svg width="32" height="45" viewBox="0 0 32 45" fill="none" xmlns="http://www.w3.org/2000/svg">
<path d="M19.3679 0.147708L19.375 0.149518V0.152777L19.4392 0.161828C20.9044 0.488741 22.3378 1.02708 23.6857 1.77829C24.9911 2.50634 26.2167 3.42734 27.314 4.54167C30.4386 7.71486 32 11.8728 32 16.0303C32 20.1883 30.4386 24.3462 27.314 27.5194L23.6361 31.2544H22.9338H19.5351H12.4649H9.06652H8.36424L4.68637 27.5201C1.56141 24.3469 0 20.189 0 16.0311C0 11.8735 1.56141 7.71559 4.68637 4.54239C5.77793 3.4335 6.99462 2.51611 8.29437 1.78988C9.62477 1.04554 11.0475 0.509377 12.513 0.177033C12.7868 0.108609 13.0823 0.0579248 13.3597 0L16.0005 2.68228L18.6257 0.0162914L19.3672 0.149881L19.3679 0.147708ZM12.8995 42.0238C15.0655 42.0238 17.3741 42.0238 19.8249 42.0238C19.5404 43.7412 18.0767 45 16.3624 45C14.6477 45 13.1822 43.7412 12.8995 42.0238ZM22.6344 37.4828H10.0889C9.28362 37.4828 8.62376 38.1529 8.62376 38.9711C8.62376 39.7893 9.28362 40.4594 10.0889 40.4594H22.6344C23.44 40.4594 24.0999 39.7897 24.0999 38.9711C24.1003 38.1529 23.4404 37.4828 22.6344 37.4828ZM22.6344 33.0034H10.0889C9.28362 33.0034 8.62376 33.6735 8.62376 34.4917C8.62376 35.3095 9.28362 35.98 10.0889 35.98H22.6344C23.44 35.98 24.0999 35.3099 24.0999 34.4917C24.1003 33.6735 23.4404 33.0034 22.6344 33.0034ZM22.4943 28.2478L25.2617 25.4377C27.8191 22.8405 29.0978 19.4356 29.0978 16.0311C29.0978 12.6269 27.8191 9.222 25.2617 6.62479C24.3544 5.70343 23.3516 4.94678 22.2915 4.35631C21.4202 3.87228 20.504 3.49468 19.565 3.22569L18.05 4.76468L22.5549 9.33966C24.3655 11.1784 25.2702 13.5877 25.2702 15.9974C25.2702 18.4067 24.3655 20.816 22.5549 22.6548C20.7443 24.4935 18.3719 25.4127 15.9991 25.4127C13.6267 25.4127 11.2539 24.4935 9.44404 22.6548C7.63344 20.816 6.72797 18.4067 6.72797 15.9974C6.72797 13.5877 7.63309 11.1784 9.44404 9.33966L13.949 4.76468L12.4321 3.22424C11.4913 3.49323 10.5702 3.87626 9.68787 4.36934C8.63481 4.958 7.63879 5.70958 6.73724 6.62696C4.1798 9.22417 2.90073 12.6291 2.90073 16.0336C2.90073 19.4381 4.1798 22.8427 6.73724 25.4399L9.50464 28.2503H22.4946L22.4943 28.2478ZM20.5037 11.4202L15.9991 6.84491L11.4942 11.4202C10.2508 12.6826 9.62834 14.3389 9.62834 15.9952C9.62834 17.6515 10.2508 19.3078 11.4942 20.5702C12.7376 21.833 14.3682 22.4647 15.9991 22.4647C17.6304 22.4647 19.2613 21.8326 20.504 20.5702C21.7475 19.3078 22.3699 17.6515 22.3699 15.9952C22.3699 14.3389 21.7471 12.6826 20.5037 11.4202Z" fill="#1664F9"/>
</svg>
