<svg width="165" height="19" viewBox="0 0 165 19" fill="none" xmlns="http://www.w3.org/2000/svg">
<path d="M10.4563 18.7938C11.1908 18.7938 11.8391 18.7241 12.4097 18.581C12.9802 18.4371 13.4805 18.2513 13.9096 18.0246C14.3396 17.7924 14.6956 17.5471 14.9813 17.2833C15.2652 17.0185 15.5079 16.7594 15.7055 16.5132C16.0784 16.0171 16.3782 15.4569 16.6021 14.8271C16.826 14.1964 16.9956 13.5563 17.1118 12.9032C17.2289 12.2502 17.2973 11.6101 17.3263 10.9933C17.3544 10.3728 17.3685 9.80702 17.3685 9.29331C17.3685 8.74615 17.3544 8.17112 17.3263 7.56916C17.2982 6.96626 17.2233 6.36429 17.0968 5.76697C16.9703 5.16408 16.7792 4.58069 16.5225 4.01496C16.2658 3.45015 15.9098 2.91694 15.4657 2.42087C14.8961 1.7994 14.1625 1.28103 13.2688 0.854638C12.3769 0.428246 11.2779 0.219233 9.97945 0.219233H2.6457C2.07515 0.219233 1.63108 0.316775 1.32285 0.510927C1.009 0.706009 0.784153 0.872287 0.639876 1.01628C0.335396 1.36835 0.154582 1.73437 0.0927493 2.10595C0.0327901 2.47661 0 2.83797 0 3.19469V16.4407C0 16.9544 0.0843175 17.3585 0.252016 17.6502C0.420651 17.9419 0.59397 18.1602 0.775721 18.2986C0.845986 18.3497 1.03898 18.4473 1.35095 18.5903C1.66387 18.7343 2.16977 18.804 2.86586 18.804H10.4657L10.4563 18.7938ZM3.52447 4.11622C3.52447 3.92207 3.56101 3.74091 3.63221 3.5737C3.70154 3.40742 3.79148 3.27736 3.89922 3.18911C4.02476 3.10086 4.16528 3.04513 4.3283 3.03119C4.48756 3.01261 4.62341 3.00425 4.73021 3.00425H8.3999C8.72218 3.00425 9.05945 3.02283 9.4192 3.05442C9.77427 3.09158 10.1331 3.1566 10.4882 3.25322C10.8442 3.35076 11.1899 3.4901 11.5168 3.66567C11.8494 3.84217 12.1483 4.07349 12.4153 4.35589C12.6992 4.65687 12.9343 4.99501 13.1114 5.37589C13.2884 5.75583 13.4243 6.14971 13.5133 6.55752C13.6032 6.9644 13.6641 7.38244 13.6875 7.80326C13.7147 8.22965 13.7297 8.63374 13.7297 9.02205C13.7297 10.5985 13.6304 11.7801 13.4346 12.5679C13.2388 13.3547 13.0224 13.926 12.7947 14.2772C12.3825 14.9312 11.8541 15.3845 11.2002 15.6307C10.55 15.8759 9.73305 16.0013 8.75122 16.0013H4.67868C4.51942 16.0013 4.3564 15.9911 4.19714 15.9734C4.03693 15.9549 3.89359 15.8759 3.76712 15.7319C3.62191 15.5889 3.54789 15.4356 3.53852 15.2693C3.52822 15.103 3.52354 14.9219 3.52354 14.7268V4.10878L3.52447 4.11622ZM23.2295 18.7938H26.7624V4.32988C26.7624 4.1348 26.7774 3.95458 26.8045 3.78737C26.8326 3.62108 26.9451 3.45294 27.1418 3.29594C27.2861 3.15196 27.4275 3.06928 27.5709 3.04513C27.7161 3.01726 27.8838 3.00425 28.0805 3.00425H33.8104C34.0961 3.00425 34.4287 3.02655 34.8016 3.06928C35.1745 3.11109 35.507 3.27736 35.7928 3.5607C35.9886 3.75485 36.1479 4.04748 36.2743 4.43671C36.4008 4.82594 36.4617 5.39167 36.4617 6.13763C36.4617 6.29555 36.457 6.48971 36.4486 6.72102C36.4383 6.95326 36.4205 7.18456 36.3961 7.42609C36.3689 7.66669 36.3268 7.89801 36.2612 8.13025C36.2003 8.36249 36.1207 8.54735 36.0317 8.68577C35.7834 9.05642 35.4761 9.28867 35.1061 9.37599C34.7416 9.46424 34.4053 9.51068 34.1017 9.51068H30.5688C30.0489 9.51068 29.6573 9.63144 29.3903 9.8674C29.1233 10.108 28.9884 10.4099 28.9884 10.7852V11.2116C28.9884 11.4754 29.0867 11.7532 29.2825 12.0458C29.4802 12.3375 29.676 12.5837 29.8718 12.7778L36.027 18.8031H40.4724L33.3532 12.2455V12.1118H35.7609C36.2931 12.1118 36.7606 12.056 37.1531 11.9399C37.5466 11.8238 37.8829 11.6761 38.1584 11.4912C38.4347 11.3054 38.6643 11.1011 38.8413 10.879C39.0184 10.6561 39.173 10.4341 39.2938 10.2028C39.6686 9.51254 39.8972 8.80746 39.9768 8.09402C40.0564 7.37593 40.0986 6.68108 40.0986 6.00851C40.0986 5.33595 40.0527 4.64572 39.9627 3.93693C39.8747 3.22813 39.6077 2.55557 39.1589 1.92109C38.8919 1.51328 38.5931 1.19371 38.2623 0.96612C37.9298 0.73388 37.5887 0.56759 37.2327 0.46076C36.8777 0.35393 36.5189 0.28983 36.1638 0.261961C35.8087 0.234093 35.4668 0.220163 35.1445 0.220163H26.2602C25.9042 0.220163 25.521 0.266606 25.1238 0.354857C24.7219 0.443108 24.3528 0.647488 24.0108 0.967049C23.6379 1.31912 23.4131 1.713 23.3419 2.14868C23.2726 2.58529 23.2351 2.99218 23.2351 3.38234V18.8012L23.2295 18.7938ZM55.1718 0C54.6012 0 53.9885 0.00929413 53.3402 0.0278733C52.69 0.0464525 52.0314 0.115188 51.3709 0.240597C50.7123 0.366007 50.064 0.560163 49.4316 0.824916C48.7955 1.08874 48.2212 1.46869 47.7068 1.96475C47.1878 2.44224 46.7859 2.98846 46.5011 3.596C46.2154 4.20818 46.0008 4.84266 45.8612 5.50501C45.716 6.16736 45.628 6.83992 45.5942 7.52085C45.5567 8.2027 45.5436 8.86041 45.5436 9.49954C45.5436 10.0318 45.5567 10.6208 45.5858 11.2785C45.613 11.9325 45.6926 12.5995 45.8294 13.2804C45.9643 13.9622 46.1741 14.6292 46.4693 15.2832C46.7634 15.9363 47.1803 16.5206 47.7125 17.0343C48.2315 17.5304 48.8067 17.9103 49.4372 18.1751C50.0734 18.4398 50.7235 18.634 51.3925 18.7594C52.0595 18.8839 52.7191 18.9535 53.373 18.9721C54.0232 18.9907 54.6256 19 55.183 19C55.7198 19 56.3128 18.9907 56.9761 18.9721C57.6366 18.9535 58.299 18.8839 58.9717 18.7594C59.6406 18.634 60.2954 18.4398 60.926 18.1751C61.5621 17.9103 62.1364 17.5304 62.6498 17.0343C63.1323 16.5754 63.5154 16.0329 63.8012 15.417C64.0851 14.7955 64.2996 14.1518 64.4457 13.4801C64.59 12.8076 64.6837 12.1313 64.7268 11.4503C64.7727 10.7694 64.7914 10.1201 64.7914 9.49954C64.7914 8.89664 64.7727 8.25287 64.7409 7.56266C64.7034 6.87151 64.6097 6.19059 64.4607 5.51895C64.3108 4.84638 64.0907 4.20262 63.8059 3.58207C63.522 2.9606 63.1369 2.42366 62.6563 1.96475C62.1373 1.46869 61.564 1.08874 60.9316 0.824916C60.2964 0.560163 59.6471 0.366007 58.9782 0.240597C58.3093 0.115188 57.6507 0.0464525 56.9977 0.0278733C56.3475 0.00836517 55.7442 0 55.1877 0H55.1718ZM49.1749 9.5014C49.1749 8.06894 49.277 6.95698 49.4822 6.16829C49.6883 5.38053 49.9684 4.75999 50.3235 4.29644C50.8753 3.62387 51.5714 3.20306 52.4136 3.03584C53.2503 2.86956 54.1618 2.78595 55.1427 2.78595C56.1067 2.78595 57.0174 2.86956 57.8727 3.03584C58.7271 3.20306 59.4335 3.6248 59.9854 4.29644C60.1306 4.47201 60.2711 4.69496 60.4154 4.95971C60.5596 5.22354 60.6814 5.56168 60.7882 5.96949C60.896 6.37823 60.9803 6.86872 61.0403 7.44375C61.1021 8.01785 61.1349 8.70435 61.1349 9.5014C61.1349 10.2427 61.103 10.9004 61.0403 11.4661C60.9812 12.031 60.8913 12.5177 60.7882 12.9255C60.6805 13.3334 60.5587 13.6761 60.4285 13.9585C60.2936 14.2409 60.1484 14.4825 59.9844 14.6766C59.6987 15.0287 59.3764 15.312 59.0223 15.5108C58.6662 15.7143 58.2793 15.8675 57.8577 15.9734C57.4371 16.0803 57.0033 16.1453 56.5452 16.1722C56.0908 16.2001 55.6196 16.2141 55.138 16.2141C54.6565 16.2141 54.1843 16.2001 53.7159 16.1722C53.2531 16.1444 52.8146 16.0803 52.4024 15.9734C51.9921 15.8675 51.6089 15.7143 51.2529 15.5108C50.8978 15.3065 50.5858 15.0287 50.3188 14.6766C50.1586 14.4825 50.0097 14.2465 49.8785 13.9725C49.7436 13.6984 49.6265 13.351 49.5187 12.9385C49.4119 12.5214 49.3276 12.0356 49.2667 11.4782C49.2077 10.9236 49.1749 10.2659 49.1749 9.5014ZM74.1807 18.7891V12.2084H82.9581C83.5099 12.2084 84.0383 12.1294 84.5386 11.9678C85.0389 11.8099 85.468 11.5878 85.823 11.3045C86.1968 11.0035 86.492 10.6412 86.7065 10.2158C86.921 9.78937 87.0794 9.3444 87.188 8.87714C87.2958 8.40894 87.3651 7.94074 87.4026 7.4679C87.441 6.99971 87.4551 6.57888 87.4551 6.2073C87.4551 5.81807 87.441 5.40097 87.4129 4.96064C87.3857 4.52032 87.323 4.07534 87.2265 3.63502C87.1271 3.19469 86.9838 2.77295 86.7964 2.37442C86.6091 1.9759 86.3524 1.62847 86.0338 1.32749C85.75 1.04508 85.4408 0.826778 85.1082 0.678145C84.7766 0.529511 84.4496 0.418957 84.118 0.34464C83.7854 0.274968 83.4678 0.233172 83.1549 0.223882C82.841 0.214593 82.5609 0.209946 82.3126 0.209946H73.4003C73.078 0.209946 72.722 0.256389 72.3294 0.34464C71.9378 0.432891 71.5902 0.627047 71.2876 0.928959C70.9654 1.24852 70.778 1.58202 70.7274 1.93874C70.6759 2.29081 70.6478 2.64754 70.6478 3.00054V18.7901L74.1807 18.7891ZM74.1807 9.41779V4.11064C74.1807 3.95272 74.191 3.79573 74.2088 3.64802C74.2275 3.49939 74.2968 3.36097 74.4233 3.23556C74.5685 3.09157 74.7091 3.01819 74.8533 3.0089C74.9985 2.99961 75.1288 2.99496 75.2552 2.99496H80.9579C81.2605 2.99496 81.625 3.02748 82.055 3.08786C82.4859 3.14824 82.8504 3.32846 83.1539 3.63037C83.4565 3.93135 83.6439 4.32987 83.7151 4.82594C83.7844 5.322 83.8219 5.77162 83.8219 6.17944C83.8219 6.35501 83.8172 6.55938 83.8088 6.79069C83.8004 7.02293 83.7713 7.2496 83.7291 7.48184C83.687 7.71408 83.6214 7.93609 83.5418 8.15811C83.4622 8.38106 83.3507 8.57057 83.2055 8.72849C82.9019 9.08057 82.5422 9.28495 82.1215 9.34069C81.6999 9.39178 81.2943 9.41965 80.9008 9.41965H74.1844H74.1807V9.41779ZM96.8583 18.7891V0.209016H93.3245V18.7891H96.8583ZM113.727 18.7891C114.46 18.7891 115.11 18.7194 115.68 18.5755C116.25 18.4315 116.752 18.2466 117.181 18.0199C117.611 17.7877 117.966 17.5425 118.252 17.2786C118.536 17.0139 118.78 16.7547 118.976 16.5095C119.35 16.0134 119.649 15.4523 119.872 14.8225C120.096 14.1917 120.266 13.5526 120.382 12.8986C120.5 12.2455 120.569 11.6064 120.597 10.9896C120.625 10.3681 120.639 9.80237 120.639 9.28866C120.639 8.7415 120.625 8.16648 120.597 7.56452C120.569 6.96162 120.495 6.35966 120.369 5.76141C120.242 5.15944 120.051 4.57513 119.794 4.01032C119.537 3.44458 119.182 2.91229 118.738 2.41529C118.167 1.79382 117.434 1.27453 116.541 0.84907C115.647 0.422678 114.55 0.214595 113.25 0.214595H105.917C105.346 0.214595 104.902 0.312126 104.594 0.506278C104.281 0.700431 104.057 0.867649 103.911 1.01164C103.607 1.36371 103.425 1.72972 103.364 2.10037C103.303 2.47103 103.271 2.83239 103.271 3.18911V16.4342C103.271 16.9489 103.355 17.352 103.523 17.6437C103.692 17.9354 103.864 18.1537 104.047 18.2921C104.117 18.3432 104.308 18.4408 104.622 18.5838C104.935 18.7269 105.439 18.7975 106.135 18.7975H113.735L113.727 18.7891ZM106.796 4.11064C106.796 3.91649 106.833 3.73535 106.902 3.56906C106.973 3.40278 107.061 3.2718 107.168 3.18447C107.295 3.09622 107.435 3.04141 107.599 3.02654C107.758 3.00797 107.893 2.99868 108 2.99868H111.669C111.991 2.99868 112.328 3.01725 112.688 3.04977C113.044 3.08693 113.403 3.15103 113.758 3.24857C114.113 3.34611 114.459 3.48453 114.787 3.66103C115.119 3.8366 115.418 4.06884 115.684 4.35124C115.968 4.65222 116.203 4.99036 116.381 5.37124C116.558 5.75118 116.694 6.14507 116.783 6.55288C116.872 6.96069 116.932 7.37779 116.955 7.79954C116.983 8.22593 116.997 8.6291 116.997 9.01833C116.997 10.5938 116.9 11.7764 116.703 12.5642C116.507 13.3519 116.292 13.9223 116.063 14.2744C115.652 14.9274 115.122 15.3817 114.469 15.6269C113.818 15.8722 113.001 15.9976 112.019 15.9976H107.947C107.788 15.9976 107.625 15.9883 107.465 15.9697C107.306 15.9512 107.163 15.8722 107.036 15.7282C106.891 15.5842 106.815 15.4319 106.807 15.2656C106.798 15.0984 106.794 14.9172 106.794 14.7231V4.10506V4.11064H106.796ZM141.519 18.7891V16.0041H131.507C131.221 16.0041 130.973 15.9902 130.773 15.9623C130.568 15.9344 130.413 15.8694 130.305 15.7635C130.128 15.6195 130.04 15.3836 130.04 15.0454V10.6932H141.149V7.9073H130.04V4.16731C130.04 4.02332 130.053 3.87562 130.082 3.7177C130.109 3.55977 130.194 3.40743 130.334 3.26808C130.479 3.1436 130.633 3.06928 130.802 3.04141C130.97 3.01354 131.138 2.99961 131.297 2.99961H141.417V0.214595H129.399C129.043 0.214595 128.654 0.251744 128.236 0.321416C127.814 0.391088 127.454 0.595467 127.151 0.933608C126.955 1.16585 126.801 1.45289 126.683 1.79567C126.566 2.13939 126.511 2.50076 126.511 2.87142V16.0375C126.511 16.3896 126.547 16.7659 126.619 17.1644C126.688 17.5629 126.885 17.9103 127.207 18.2113C127.512 18.5123 127.843 18.6832 128.198 18.7306C128.554 18.777 128.936 18.7956 129.349 18.7956H141.53L141.519 18.7891ZM144.709 18.7891H148.43L150.332 14.0895H159.354L161.279 18.7891H165L157.933 2.09481C157.592 1.31634 157.195 0.774751 156.742 0.46355C156.288 0.152348 155.658 0 154.854 0C154.016 0 153.376 0.153277 152.937 0.46355C152.497 0.773822 152.11 1.31634 151.772 2.09481L144.707 18.7891H144.709ZM154.32 4.03261C154.371 3.88955 154.446 3.72698 154.535 3.54212C154.623 3.35633 154.731 3.26436 154.858 3.26436C154.984 3.26436 155.092 3.35633 155.181 3.54212C155.269 3.72698 155.34 3.88955 155.395 4.03261L158.447 11.5962H151.248L154.329 4.03261H154.32Z" fill="#343041"/>
</svg>
