<svg width="49" height="49" viewBox="0 0 49 49" fill="none" xmlns="http://www.w3.org/2000/svg">
<path d="M13.4961 30.8203C14.6589 30.8203 15.6016 29.8777 15.6016 28.7148C15.6016 27.552 14.6589 26.6094 13.4961 26.6094C12.3333 26.6094 11.3906 27.552 11.3906 28.7148C11.3906 29.8777 12.3333 30.8203 13.4961 30.8203Z" fill="white"/>
<path d="M21.1562 30.8203C22.3191 30.8203 23.2617 29.8777 23.2617 28.7148C23.2617 27.552 22.3191 26.6094 21.1562 26.6094C19.9934 26.6094 19.0508 27.552 19.0508 28.7148C19.0508 29.8777 19.9934 30.8203 21.1562 30.8203Z" fill="white"/>
<path d="M48.1323 3.41791C43.8307 3.01423 39.6863 1.89441 35.8144 0.0896497C35.5581 -0.0298832 35.2621 -0.0298832 35.0058 0.0896497C31.134 1.89441 26.9896 3.01423 22.6879 3.41791C22.1962 3.46404 21.8204 3.8768 21.8204 4.37073V12.2432C21.8204 12.6957 21.8368 13.1459 21.8678 13.5937H8.23045C3.69212 13.5937 0 17.2859 0 21.8242V35.2226C0 39.7608 3.69212 43.453 8.23045 43.453H21.0546V47.8553C21.0546 48.2424 21.2879 48.5914 21.6454 48.7395C21.7638 48.7886 21.8882 48.8125 22.0115 48.8125C22.2606 48.8125 22.5053 48.7151 22.6884 48.5321L27.7674 43.4531H34.0702C38.6086 43.4531 42.3007 39.7609 42.3007 35.2227V26.8869C43.4147 25.9196 44.4234 24.8195 45.3084 23.5987C47.7234 20.2673 48.9999 16.3407 48.9999 12.2432V4.37073C48.9999 3.8768 48.624 3.46404 48.1323 3.41791ZM40.3866 35.2226C40.3866 38.7055 37.5531 41.5389 34.0702 41.5389H27.371C27.1172 41.5389 26.8738 41.6398 26.6943 41.8193L22.9687 45.5449V42.496C22.9687 41.9674 22.5401 41.5389 22.0117 41.5389H8.23045C4.74753 41.5389 1.91406 38.7055 1.91406 35.2226V21.8242C1.91406 18.3412 4.74753 15.5078 8.23045 15.5078H22.0961C22.5911 18.4121 23.747 21.1644 25.5117 23.5987C26.3328 24.7314 27.2604 25.7604 28.2798 26.6758C27.3719 26.9096 26.7011 27.7338 26.7011 28.7148C26.7011 29.8776 27.6438 30.8202 28.8066 30.8202C29.9694 30.8202 30.912 29.8776 30.912 28.7148C30.912 28.6955 30.9111 28.6765 30.9106 28.6573C32.2151 29.4745 33.6214 30.1369 35.1098 30.6287C35.2074 30.6609 35.3086 30.6771 35.4101 30.6771C35.5115 30.6771 35.6128 30.661 35.7103 30.6287C37.382 30.0764 38.9502 29.3091 40.3866 28.3489V35.2226ZM47.0858 12.2432C47.0858 19.6806 42.4071 26.2576 35.4101 28.709C28.413 26.2575 23.7343 19.6806 23.7343 12.2432V5.23272C27.796 4.76263 31.7178 3.68042 35.4101 2.01021C39.1024 3.68042 43.0241 4.76263 47.0858 5.23272V12.2432Z" fill="white"/>
<path d="M31.2744 10.6069V11.6664H31.1718C30.2356 11.6664 29.4766 12.4254 29.4766 13.3617V20.1429C29.4766 21.0792 30.2356 21.8382 31.1718 21.8382H39.6483C40.5846 21.8382 41.3436 21.0792 41.3436 20.1429V13.3617C41.3436 12.4254 40.5846 11.6664 39.6483 11.6664H39.5457V10.6069C39.5457 8.32639 37.6905 6.47119 35.41 6.47119C33.1296 6.47119 31.2744 8.32649 31.2744 10.6069ZM36.475 17.1227V19.0234H34.3696V17.1227C34.0755 16.8437 33.8911 16.4501 33.8911 16.0127C33.8911 15.1669 34.5767 14.4814 35.4223 14.4814C36.2679 14.4814 36.9535 15.1669 36.9535 16.0127C36.9535 16.4501 36.7691 16.8437 36.475 17.1227ZM37.6318 10.6069V11.6664H33.1885V10.6069C33.1885 9.3819 34.1851 8.38525 35.4101 8.38525C36.6351 8.38525 37.6318 9.3819 37.6318 10.6069Z" fill="white"/>
</svg>
