<svg width="232" height="45" viewBox="0 0 232 45" fill="none" xmlns="http://www.w3.org/2000/svg">
<rect x="13" y="-0.00012207" width="44.7618" height="44.7618" rx="22.3809" fill="#1664F9"/>
<path d="M39.6484 22.6522L40.1335 19.4643H37.0496V17.3852C37.0496 16.4843 37.4654 15.6527 38.8515 15.6527H40.2721V12.9153C40.2721 12.9153 38.9901 12.6727 37.7773 12.6727C35.2478 12.6727 33.5845 14.232 33.5845 17.0041V19.4643H30.7432V22.6522H33.5845V30.4139H37.0496V22.6522H39.6484Z" fill="white"/>
<rect x="70.9999" y="-0.00012207" width="44.7618" height="44.7618" rx="22.3809" fill="#D9E8F9"/>
<path d="M100.842 18.7756C101.535 18.2558 102.159 17.6321 102.644 16.9044C102.02 17.1816 101.292 17.3895 100.565 17.4588C101.327 17.0084 101.882 16.3154 102.159 15.4491C101.466 15.8649 100.669 16.1768 99.8718 16.35C99.1787 15.6224 98.2432 15.2065 97.2036 15.2065C95.1939 15.2065 93.5653 16.8351 93.5653 18.8449C93.5653 19.1221 93.6 19.3993 93.6693 19.6765C90.6546 19.5032 87.9519 18.0479 86.15 15.8649C85.8382 16.3847 85.6649 17.0084 85.6649 17.7014C85.6649 18.9488 86.2886 20.0577 87.2935 20.716C86.7044 20.6814 86.1154 20.5428 85.6303 20.2656V20.3002C85.6303 22.0674 86.8777 23.5227 88.5409 23.8692C88.2637 23.9385 87.9172 24.0078 87.6054 24.0078C87.3628 24.0078 87.1549 23.9732 86.9124 23.9385C87.3628 25.3939 88.7142 26.4334 90.3081 26.4681C89.0607 27.4383 87.5014 28.0273 85.8035 28.0273C85.4917 28.0273 85.2145 27.9927 84.9373 27.958C86.5312 28.9976 88.437 29.5866 90.516 29.5866C97.2036 29.5866 100.842 24.0772 100.842 19.2607C100.842 19.0874 100.842 18.9488 100.842 18.7756Z" fill="#1664F9"/>
<rect x="129" y="-0.00012207" width="44.7618" height="44.7618" rx="22.3809" fill="#D9E8F9"/>
<path d="M153.362 20.9247H147.056V23.2116H150.833C150.694 24.1818 149.689 26.0876 147.056 26.0876C144.804 26.0876 142.932 24.2165 142.932 21.8602C142.932 19.5386 144.804 17.6675 147.056 17.6675C148.373 17.6675 149.239 18.2219 149.724 18.707L151.526 16.9745C150.348 15.8656 148.858 15.2073 147.056 15.2073C143.383 15.2073 140.403 18.1872 140.403 21.8602C140.403 25.5679 143.383 28.5132 147.056 28.5132C150.902 28.5132 153.466 25.8451 153.466 22.0335C153.466 21.583 153.397 21.2712 153.362 20.9247ZM159.773 21.1326V19.2268H157.832V21.1326H155.892V23.073H157.832V25.0135H159.773V23.073H161.713V21.1326H159.773Z" fill="#1664F9"/>
<rect x="187" y="-0.00012207" width="44.7618" height="44.7618" rx="22.3809" fill="#1664F9" fill-opacity="0.1"/>
<path d="M206.406 28.429V18.0684H203.184V28.429H206.406ZM204.778 16.6824C205.817 16.6824 206.649 15.8161 206.649 14.7766C206.649 13.7717 205.817 12.9401 204.778 12.9401C203.773 12.9401 202.941 13.7717 202.941 14.7766C202.941 15.8161 203.773 16.6824 204.778 16.6824ZM218.43 28.429H218.465V22.7462C218.465 19.9742 217.841 17.8258 214.584 17.8258C213.025 17.8258 211.985 18.6921 211.535 19.4891H211.5V18.0684H208.416V28.429H211.639V23.3007C211.639 21.9493 211.881 20.6672 213.545 20.6672C215.208 20.6672 215.242 22.1918 215.242 23.4046V28.429H218.43Z" fill="#1664F9"/>
</svg>
